<svg width="55" height="53" viewBox="0 0 55 53" fill="none" xmlns="http://www.w3.org/2000/svg">
<circle cx="26.5" cy="26.5" r="26.5" fill="#884499"/>
<circle cx="26.5" cy="26.5" r="26" stroke="white" stroke-opacity="0.27"/>
<path d="M25.4766 30.1953H17.4609V44H12.9375V9.875H24.2344C28.0781 9.875 31.0312 10.75 33.0938 12.5C35.1719 14.25 36.2109 16.7969 36.2109 20.1406C36.2109 22.2656 35.6328 24.1172 34.4766 25.6953C33.3359 27.2734 31.7422 28.4531 29.6953 29.2344L37.7109 43.7188V44H32.8828L25.4766 30.1953ZM17.4609 26.5156H24.375C26.6094 26.5156 28.3828 25.9375 29.6953 24.7812C31.0234 23.625 31.6875 22.0781 31.6875 20.1406C31.6875 18.0312 31.0547 16.4141 29.7891 15.2891C28.5391 14.1641 26.7266 13.5938 24.3516 13.5781H17.4609V26.5156Z" fill="#1E1E1E"/>
<path d="M25.4766 30.1953L26.3578 29.7226L26.0749 29.1953H25.4766V30.1953ZM17.4609 30.1953V29.1953H16.4609V30.1953H17.4609ZM17.4609 44V45H18.4609V44H17.4609ZM12.9375 44H11.9375V45H12.9375V44ZM12.9375 9.875V8.875H11.9375V9.875H12.9375ZM33.0938 12.5L32.4468 13.2625L32.4496 13.2649L33.0938 12.5ZM34.4766 25.6953L33.6699 25.1043L33.6661 25.1095L34.4766 25.6953ZM29.6953 29.2344L29.3387 28.3001L28.2627 28.7108L28.8204 29.7186L29.6953 29.2344ZM37.7109 43.7188H38.7109V43.4605L38.5859 43.2346L37.7109 43.7188ZM37.7109 44V45H38.7109V44H37.7109ZM32.8828 44L32.0016 44.4728L32.2845 45H32.8828V44ZM17.4609 26.5156H16.4609V27.5156H17.4609V26.5156ZM29.6953 24.7812L29.0387 24.027L29.0343 24.0309L29.6953 24.7812ZM29.7891 15.2891L29.1201 16.0324L29.1247 16.0365L29.7891 15.2891ZM24.3516 13.5781L24.3581 12.5781H24.3516V13.5781ZM17.4609 13.5781V12.5781H16.4609V13.5781H17.4609ZM25.4766 29.1953H17.4609V31.1953H25.4766V29.1953ZM16.4609 30.1953V44H18.4609V30.1953H16.4609ZM17.4609 43H12.9375V45H17.4609V43ZM13.9375 44V9.875H11.9375V44H13.9375ZM12.9375 10.875H24.2344V8.875H12.9375V10.875ZM24.2344 10.875C27.9395 10.875 30.628 11.7193 32.4468 13.2625L33.7407 11.7375C31.4345 9.78071 28.2168 8.875 24.2344 8.875V10.875ZM32.4496 13.2649C34.2508 14.7817 35.2109 17.0175 35.2109 20.1406H37.2109C37.2109 16.5762 36.0929 13.7183 33.7379 11.7351L32.4496 13.2649ZM35.2109 20.1406C35.2109 22.0724 34.6896 23.7126 33.6699 25.1043L35.2832 26.2863C36.5761 24.5218 37.2109 22.4588 37.2109 20.1406H35.2109ZM33.6661 25.1095C32.6535 26.5105 31.2271 27.5793 29.3387 28.3001L30.0519 30.1686C32.2573 29.3269 34.0184 28.0364 35.287 26.2811L33.6661 25.1095ZM28.8204 29.7186L36.836 44.2029L38.5859 43.2346L30.5703 28.7502L28.8204 29.7186ZM36.7109 43.7188V44H38.7109V43.7188H36.7109ZM37.7109 43H32.8828V45H37.7109V43ZM33.764 43.5272L26.3578 29.7226L24.5954 30.6681L32.0016 44.4728L33.764 43.5272ZM17.4609 27.5156H24.375V25.5156H17.4609V27.5156ZM24.375 27.5156C26.7833 27.5156 28.8151 26.8894 30.3563 25.5316L29.0343 24.0309C27.9506 24.9856 26.4355 25.5156 24.375 25.5156V27.5156ZM30.3519 25.5355C31.9216 24.1689 32.6875 22.3348 32.6875 20.1406H30.6875C30.6875 21.8215 30.1252 23.0811 29.0387 24.027L30.3519 25.5355ZM32.6875 20.1406C32.6875 17.8213 31.9832 15.9015 30.4534 14.5417L29.1247 16.0365C30.1262 16.9267 30.6875 18.2412 30.6875 20.1406H32.6875ZM30.458 14.5458C28.9632 13.2005 26.8776 12.5947 24.3581 12.5781L24.345 14.5781C26.5755 14.5928 28.1149 15.1277 29.1201 16.0324L30.458 14.5458ZM24.3516 12.5781H17.4609V14.5781H24.3516V12.5781ZM16.4609 13.5781V26.5156H18.4609V13.5781H16.4609Z" fill="white" fill-opacity="0.27"/>
<g clip-path="url(#clip0)">
<path d="M48.9912 34.832L40.3538 24.396C40.3538 24.396 39.6457 23.5654 38.9029 24.31C37.882 25.3328 30.5344 35.0845 30.5344 35.0845C30.5344 35.0845 29.2299 36.3798 30.9588 36.3798C32.6933 36.3798 35.4541 36.3798 35.4541 36.3798C35.4541 36.3798 35.4541 37.1318 35.4541 38.2826C35.4541 41.8302 35.4541 48.7369 35.4541 51.3824C35.4541 51.3824 35.434 52.0008 36.2372 52.0008C37.0367 52.0008 41.962 52.0008 43.0853 52.0008C44.2032 52.0008 44.0111 51.2617 44.0111 51.2617C44.0111 48.5466 44.0111 41.8668 44.0111 38.1911C44.0111 36.9086 44.0111 36.0688 44.0111 36.0688C44.0111 36.0688 47.4562 36.0688 48.8778 36.0688C50.2994 36.0688 48.9912 34.832 48.9912 34.832Z" fill="url(#paint0_linear)"/>
</g>
<defs>
<linearGradient id="paint0_linear" x1="39.8015" y1="24" x2="39.8015" y2="52.0008" gradientUnits="userSpaceOnUse">
<stop stop-color="#00FFA3"/>
<stop offset="1" stop-color="#144131"/>
</linearGradient>
<clipPath id="clip0">
<rect width="28" height="28" fill="white" transform="translate(27 24)"/>
</clipPath>
</defs>
</svg>
